<svg id="Layer_3" enable-background="new 0 0 64 64" height="512" viewBox="0 0 64 64" width="512" xmlns="http://www.w3.org/2000/svg"><g><path d="m22.501 41.075c-7.395 1.773-12.501 5.551-12.501 9.925 0 6.075 9.85 11 22 11s22-4.925 22-11c0-4.374-5.106-8.152-12.501-9.925z" fill="#f8cf6a"/><path d="m28.885 48.417c-2.303.655-3.885 2.013-3.885 3.583 0 2.209 3.134 4 7 4s7-1.791 7-4c0-1.57-1.582-2.928-3.885-3.583z" fill="#ca2b1d"/><path d="m32 52-15.178-17.454c-3.109-3.577-4.822-8.156-4.822-12.895 0-10.853 8.798-19.651 19.651-19.651h.698c10.853 0 19.651 8.798 19.651 19.651 0 4.739-1.713 9.318-4.822 12.895z" fill="#668831"/><path d="m30.484 2.059c-10.307.607-18.484 9.133-18.484 19.592 0 2.458.47 4.869 1.347 7.124 1.324.337 2.703.535 4.132.535 9.241 0 16.732-7.491 16.732-16.732 0-3.988-1.399-7.645-3.727-10.519z" fill="#739937"/><circle cx="32" cy="22" fill="#c7e2fc" r="14"/><path d="m18 22c0 2.598.72 5.022 1.953 7.107 8.065-1.199 14.258-8.131 14.258-16.529 0-1.555-.229-3.053-.625-4.482-.521-.059-1.049-.096-1.586-.096-7.732 0-14 6.268-14 14z" fill="#ebf7fe"/><path d="m26 21h12v8h-12z" fill="#f5ba5b"/><path d="m26 26.959c2.445-1.452 4.485-3.503 5.92-5.959h-5.92z" fill="#f8cf6a"/><path d="m40 18v3h-16v-3l4-3h8z" fill="#625d51"/><path d="m34.016 15h-6.016l-4 3v3h7.92c1.059-1.812 1.782-3.837 2.096-6z" fill="#8a8275"/></g></svg>